<?xml version="1.0" encoding="iso-8859-1"?>
<!-- Generator: Adobe Illustrator 19.0.0, SVG Export Plug-In . SVG Version: 6.00 Build 0)  -->
<svg version="1.1" id="Capa_1" xmlns="http://www.w3.org/2000/svg" xmlns:xlink="http://www.w3.org/1999/xlink" x="0px" y="0px"
	 viewBox="0 0 512.001 512.001" style="enable-background:new 0 0 512.001 512.001;" xml:space="preserve">
<path style="fill:#E2E2E2;" d="M284.332,0H14.723C6.921,0,0.595,6.326,0.595,14.128c0,2.167,0,382.527,0,392.05
	c0,7.802,6.326,14.128,14.128,14.128c11.758,0,257.911,0,269.609,0c7.802,0,14.128-6.326,14.128-14.128V85.312V14.128
	C298.46,6.326,292.134,0,284.332,0z"/>
<path style="fill:#D1D3D3;" d="M22.514,406.178V14.128C22.514,6.326,28.839,0,36.641,0H14.723C6.921,0,0.595,6.326,0.595,14.128
	v392.05c0,7.802,6.326,14.128,14.128,14.128h21.918C28.839,420.306,22.514,413.98,22.514,406.178z"/>
<g>
	<path style="fill:#47545E;" d="M177.182,137.095v11.59h-47.223V80.677h46.36v11.59h-33.142v16.38h28.641v10.728h-28.641v17.721
		L177.182,137.095L177.182,137.095z"/>
	<path style="fill:#47545E;" d="M88.695,229.565v-49.953h33.912v10.131h-22.373v10.764h18.433v9.357h-18.433v19.7H88.695z"/>
	<path style="fill:#47545E;" d="M95.268,283.718h-9.121v24.143H77.43v-24.143h-9.166v-7.601h27.004V283.718z"/>
	<path style="fill:#47545E;" d="M210.763,301.379l14.842-17.66h-14.172v-7.601h24.233v6.483l-13.951,17.661h14.219v7.6h-25.171
		V301.379z"/>
	<path style="fill:#47545E;" d="M134.668,291.945c0-17.194,24.459-22.678,31.096-5.768c3.202,8.162-0.571,17.015-8.539,20.611
		C146.682,311.542,134.668,303.588,134.668,291.945z M143.52,292.034c0,11.116,14.53,11.377,14.53-0.09
		C158.05,280.867,143.52,280.769,143.52,292.034z"/>
</g>
<path style="fill:#7EC16B;" d="M245.818,259.141H63.327c-4.264,0-7.722-3.457-7.722-7.722c0-4.265,3.457-7.722,7.722-7.722h182.491
	c4.264,0,7.722,3.457,7.722,7.722C253.54,255.684,250.082,259.141,245.818,259.141z"/>
<path style="fill:#FF5959;" d="M245.818,341.831H63.327c-4.264,0-7.722-3.457-7.722-7.722c0-4.265,3.457-7.722,7.722-7.722h182.491
	c4.264,0,7.722,3.457,7.722,7.722C253.54,338.374,250.082,341.831,245.818,341.831z"/>
<path style="fill:#47545E;" d="M290.284,164.867c2.307,0,4.533,0.345,6.633,0.982v-10.773c53.902,6.551,95.946-25.222,95.946-25.222
	l23.464,25.222v10.773c2.1-0.637,4.324-0.982,6.633-0.982c5.172,0,9.944,1.722,13.772,4.62v-29.383
	c0-44.245-35.863-80.111-80.111-80.111c-44.245,0-80.11,35.867-80.11,80.111v29.384C280.339,166.589,285.11,164.867,290.284,164.867
	z"/>
<path style="fill:#333E48;" d="M296.057,140.105c0-40.935,30.707-74.673,70.338-79.497c-48.231-5.87-89.884,31.773-89.884,79.497
	v29.384c3.829-2.899,8.6-4.621,13.774-4.621c1.996,0,3.927,0.272,5.773,0.754L296.057,140.105L296.057,140.105z"/>
<path style="fill:#49A9EA;" d="M478.653,317.732l-88.511-34.757v9.573l-33.474,29.478l-33.474-29.478v-9.573l-88.511,34.757
	c0,0-32.753,13.465-32.753,50.805c0,33.207,0,102.819,0,131.108c0,6.795,5.56,12.355,12.355,12.355c11.734,0,273.476,0,284.766,0
	c6.795,0,12.355-5.56,12.355-12.355c0-28.289,0-97.901,0-131.108C511.405,331.198,478.653,317.732,478.653,317.732z"/>
<path style="fill:#DCEFF9;" d="M234.682,317.732c0,0-32.753,13.465-32.753,50.805c0,33.207,0,102.819,0,131.108
	c0,6.795,5.56,12.355,12.355,12.355h108.863l-23.296-219.858L234.682,317.732z"/>
<path style="fill:#C8E9FC;" d="M223.628,499.645c0-28.289,0-115.404,0-148.611c0-14.48,4.931-25.356,10.961-33.262
	c-1.888,0.81-32.661,14.571-32.661,50.766c0,33.207,0,102.819,0,131.108c0,6.795,5.56,12.355,12.355,12.355h21.699
	C229.188,512,223.628,506.441,223.628,499.645z"/>
<path style="fill:#DCEFF9;" d="M478.653,317.732l-65.169-25.59L390.188,512c12.561,0,97.898,0,108.863,0
	c6.795,0,12.355-5.56,12.355-12.355c0-28.289,0-97.901,0-131.108C511.405,331.198,478.653,317.732,478.653,317.732z"/>
<path style="fill:#47545E;" d="M191.346,229.565v-49.953c23.137,0,24.031-0.432,27.897,1.478c16.27,8.04,10.582,32.364-6.227,32.364
	h-10.131v16.111H191.346z M202.885,203.392c10.05,0,11.035,0.515,12.946-1.759c2.573-3.063,2.179-11.89-3.94-11.89h-9.005
	L202.885,203.392L202.885,203.392z"/>
<g>
	<path style="fill:#F0A479;" d="M296.917,163.79c-14.686-4.45-29.478,6.561-29.478,21.864c0,12.619,10.227,22.846,22.846,22.846
		c2.307,0,4.533-0.345,6.633-0.981V163.79z"/>
	<path style="fill:#F0A479;" d="M416.327,163.79c2.1-0.637,4.324-0.982,6.633-0.982c12.617,0,22.846,10.229,22.846,22.846
		c0,12.619-10.229,22.846-22.846,22.846c-2.309,0-4.533-0.345-6.633-0.981V163.79z"/>
	<path style="fill:#F0A479;" d="M390.096,292.549v-36.68c-19.985,13.336-47.287,13.119-66.949,0v36.68l33.474,29.478
		L390.096,292.549z"/>
</g>
<path style="fill:#E2926F;" d="M343.739,264.496c-7.482-1.556-14.445-4.525-20.593-8.627v36.68l20.593,18.135V264.496z"/>
<g>
	<path style="fill:#C8E9FC;" d="M265.398,512V392.711c0-4.265-3.457-7.722-7.722-7.722c-4.265,0-7.722,3.457-7.722,7.722V512
		H265.398z"/>
	<path style="fill:#C8E9FC;" d="M463.383,512V392.711c0-4.265-3.457-7.722-7.722-7.722c-4.265,0-7.722,3.457-7.722,7.722V512
		H463.383z"/>
</g>
<g>
	<path style="fill:#339AD3;" d="M324.701,334.788c0,0,0.116,0.199,0.118,0.203c0.651,1.058,4.071,5.798,10.765,1.276l0,0
		l21.083-14.239l-33.474-29.478v-9.573l-23.342,9.166L324.701,334.788L324.701,334.788z"/>
	<path style="fill:#339AD3;" d="M388.633,334.788L388.633,334.788l-0.118,0.203c-0.651,1.058-4.071,5.798-10.765,1.276l0,0
		l-21.083-14.239l33.474-29.478v-9.573l23.342,9.166L388.633,334.788L388.633,334.788z"/>
</g>
<path style="fill:#47545E;" d="M335.526,461.965L335.526,461.965l-0.067,0.697c-0.078,1.279-0.03,4.015,1.566,5.592
	c2.135,2.108,16.334,16.099,16.334,16.099c1.682,1.798,4.429,2.291,6.647-0.001c3.395-3.477,15.825-15.628,15.825-15.628
	s2.353-2.811,2.098-5.49l-10.675-112.332c-7.653,0-13.512,0-21.174,0L335.526,461.965L335.526,461.965z"/>
<path style="fill:#333E48;" d="M359.201,468.863c-2.172-2.145-2.241-5.145-2.167-6.363c11.371-119.646,10.493-108.726,10.22-111.598
	c-7.653,0-13.512,0-21.174,0l-10.554,111.063l0,0l-0.067,0.698c-0.078,1.28-0.03,4.015,1.566,5.591
	c2.135,2.108,16.334,16.099,16.334,16.099c1.755,1.876,4.598,2.218,6.647-0.001c1.418-1.452,4.409-4.414,7.414-7.374
	L359.201,468.863L359.201,468.863z"/>
<path style="fill:#FFC299;" d="M415.877,151.777l-20.793-22.351c-1.214-1.305-3.201-1.526-4.671-0.521
	c-9.78,6.683-45.185,28.151-90.07,23.963c-1.008-0.101-2.013,0.241-2.763,0.923c-0.749,0.682-1.177,1.65-1.177,2.665v50.431
	c0,31.02,24.307,59.368,61.071,59.368c32.736,0,59.369-26.633,59.369-59.368v-52.655
	C416.842,153.32,416.497,152.443,415.877,151.777z"/>
<path style="fill:#F9B887;" d="M316.977,206.885c0-0.549-0.004-53.041,0.007-53.586c-5.372,0.214-10.93,0.101-16.642-0.432
	c-1.008-0.101-2.013,0.241-2.763,0.923c-0.749,0.682-1.177,1.65-1.177,2.665v50.431c0,35.337,31.371,64.887,70.507,58.61
	C338.643,260.96,316.977,236.41,316.977,206.885z"/>
<path style="fill:#47545E;" d="M356.667,322.027l-16.639,11.238l6.053,18.667c7.653,0,13.512,0,21.174,0l6.053-18.667
	L356.667,322.027z"/>
<path style="fill:#2B353D;" d="M362.418,335.829c-0.522-1.61-0.204-3,1.3-4.003l0,0l3.729-2.518l-10.78-7.28l-16.639,11.238
	l6.053,18.667c7.652,0,13.512,0,21.174,0l0.193-0.595L362.418,335.829L362.418,335.829z"/>
<g>
</g>
<g>
</g>
<g>
</g>
<g>
</g>
<g>
</g>
<g>
</g>
<g>
</g>
<g>
</g>
<g>
</g>
<g>
</g>
<g>
</g>
<g>
</g>
<g>
</g>
<g>
</g>
<g>
</g>
</svg>
